ffmpeg version 8.0.1 Copyright (c) 2000-2025 the FFmpeg developers
  built with Apple clang version 17.0.0 (clang-1700.6.3.2)
  configuration: --prefix=/opt/homebrew/Cellar/ffmpeg/8.0.1_1 --enable-shared --enable-pthreads --enable-version3 --cc=clang --host-cflags= --host-ldflags= --enable-ffplay --enable-gpl --enable-libsvtav1 --enable-libopus --enable-libx264 --enable-libmp3lame --enable-libdav1d --enable-libvpx --enable-libx265 --enable-videotoolbox --enable-audiotoolbox --enable-neon
  libavutil      60.  8.100 / 60.  8.100
  libavcodec     62. 11.100 / 62. 11.100
  libavformat    62.  3.100 / 62.  3.100
  libavdevice    62.  1.100 / 62.  1.100
  libavfilter    11.  4.100 / 11.  4.100
  libswscale      9.  1.100 /  9.  1.100
  libswresample   6.  1.100 /  6.  1.100
[rawvideo @ 0x145e06510] Stream #0: not enough frames to estimate rate; consider increasing probesize
[rawvideo @ 0x145e06510] Estimating duration from bitrate, this may be inaccurate
Input #0, rawvideo, from 'render.rgb':
  Duration: 00:00:00.53, start: 0.000000, bitrate: 2654208 kb/s
  Stream #0:0: Video: rawvideo (RGB[24] / 0x18424752), rgb24, 1280x720, 2654208 kb/s, 120 tbr, 120 tbn
Stream mapping:
  Stream #0:0 -> #0:0 (rawvideo (native) -> h264 (libx264))
Press [q] to stop, [?] for help
[libx264 @ 0x145e07a90] using cpu capabilities: ARMv8 NEON DotProd I8MM
[libx264 @ 0x145e07a90] profile High, level 4.2, 4:2:0, 8-bit
[libx264 @ 0x145e07a90] 264 - core 165 r3222 b35605a - H.264/MPEG-4 AVC codec - Copyleft 2003-2025 - http://www.videolan.org/x264.html - options: cabac=1 ref=3 deblock=1:0:0 analyse=0x3:0x113 me=hex subme=7 psy=1 psy_rd=1.00:0.00 mixed_ref=1 me_range=16 chroma_me=1 trellis=1 8x8dct=1 cqm=0 deadzone=21,11 fast_pskip=1 chroma_qp_offset=-2 threads=16 lookahead_threads=2 sliced_threads=0 nr=0 decimate=1 interlaced=0 bluray_compat=0 constrained_intra=0 bframes=3 b_pyramid=2 b_adapt=1 b_bias=0 direct=1 weightb=1 open_gop=0 weightp=2 keyint=250 keyint_min=25 scenecut=40 intra_refresh=0 rc_lookahead=40 rc=crf mbtree=1 crf=20.0 qcomp=0.60 qpmin=0 qpmax=69 qpstep=4 ip_ratio=1.40 aq=1:1.00
Output #0, mp4, to 'render.mp4':
  Metadata:
    encoder         : Lavf62.3.100
  Stream #0:0: Video: h264 (avc1 / 0x31637661), yuv420p(tv, progressive), 1280x720, q=2-31, 120 fps, 15360 tbn
    Metadata:
      encoder         : Lavc62.11.100 libx264
    Side data:
      cpb: bitrate max/min/avg: 0/0/0 buffer size: 0 vbv_delay: N/A
[out#0/mp4 @ 0x600002ab4240] video:26KiB audio:0KiB subtitle:0KiB other streams:0KiB global headers:0KiB muxing overhead: 5.637883%
frame=   63 fps=0.0 q=-1.0 Lsize=      28KiB time=00:00:00.50 bitrate= 447.6kbits/s speed=4.21x elapsed=0:00:00.12    
[libx264 @ 0x145e07a90] frame I:1     Avg QP:15.84  size:  6820
[libx264 @ 0x145e07a90] frame P:28    Avg QP:18.17  size:   489
[libx264 @ 0x145e07a90] frame B:34    Avg QP:24.70  size:   169
[libx264 @ 0x145e07a90] consecutive B-frames: 23.8%  6.3% 19.0% 50.8%
[libx264 @ 0x145e07a90] mb I  I16..4: 44.4% 48.9%  6.7%
[libx264 @ 0x145e07a90] mb P  I16..4:  0.2%  0.1%  0.1%  P16..4:  2.6%  0.6%  0.1%  0.0%  0.0%    skip:96.2%
[libx264 @ 0x145e07a90] mb B  I16..4:  0.0%  0.0%  0.0%  B16..8:  2.0%  0.1%  0.0%  direct: 0.0%  skip:97.9%  L0:45.7% L1:53.2% BI: 1.1%
[libx264 @ 0x145e07a90] 8x8 transform intra:46.6% inter:71.9%
[libx264 @ 0x145e07a90] coded y,uvDC,uvAC intra: 10.7% 3.0% 2.8% inter: 0.1% 0.0% 0.0%
[libx264 @ 0x145e07a90] i16 v,h,dc,p: 18%  7%  1% 74%
[libx264 @ 0x145e07a90] i8 v,h,dc,ddl,ddr,vr,hd,vl,hu: 27%  7% 15% 11% 11% 10%  5% 11%  2%
[libx264 @ 0x145e07a90] i4 v,h,dc,ddl,ddr,vr,hd,vl,hu: 34% 13% 29%  4%  6%  5%  3%  3%  1%
[libx264 @ 0x145e07a90] i8c dc,h,v,p: 98%  1%  1%  1%
[libx264 @ 0x145e07a90] Weighted P-Frames: Y:0.0% UV:0.0%
[libx264 @ 0x145e07a90] ref P L0: 79.9%  1.2% 12.7%  6.1%
[libx264 @ 0x145e07a90] ref B L0: 35.3% 46.8% 17.9%
[libx264 @ 0x145e07a90] ref B L1: 99.6%  0.4%
[libx264 @ 0x145e07a90] kb/s:399.77
